%TF.GenerationSoftware,KiCad,Pcbnew,(6.0.11)*%
%TF.CreationDate,2024-05-30T13:56:32-03:00*%
%TF.ProjectId,hardware,68617264-7761-4726-952e-6b696361645f,rev?*%
%TF.SameCoordinates,Original*%
%TF.FileFunction,Copper,L1,Top*%
%TF.FilePolarity,Positive*%
%FSLAX46Y46*%
G04 Gerber Fmt 4.6, Leading zero omitted, Abs format (unit mm)*
G04 Created by KiCad (PCBNEW (6.0.11)) date 2024-05-30 13:56:32*
%MOMM*%
%LPD*%
G01*
G04 APERTURE LIST*
G04 Aperture macros list*
%AMRoundRect*
0 Rectangle with rounded corners*
0 $1 Rounding radius*
0 $2 $3 $4 $5 $6 $7 $8 $9 X,Y pos of 4 corners*
0 Add a 4 corners polygon primitive as box body*
4,1,4,$2,$3,$4,$5,$6,$7,$8,$9,$2,$3,0*
0 Add four circle primitives for the rounded corners*
1,1,$1+$1,$2,$3*
1,1,$1+$1,$4,$5*
1,1,$1+$1,$6,$7*
1,1,$1+$1,$8,$9*
0 Add four rect primitives between the rounded corners*
20,1,$1+$1,$2,$3,$4,$5,0*
20,1,$1+$1,$4,$5,$6,$7,0*
20,1,$1+$1,$6,$7,$8,$9,0*
20,1,$1+$1,$8,$9,$2,$3,0*%
G04 Aperture macros list end*
%TA.AperFunction,ComponentPad*%
%ADD10R,1.905000X2.540000*%
%TD*%
%TA.AperFunction,ComponentPad*%
%ADD11O,1.905000X2.540000*%
%TD*%
%TA.AperFunction,ComponentPad*%
%ADD12C,3.048000*%
%TD*%
%TA.AperFunction,ComponentPad*%
%ADD13O,3.048000X3.048000*%
%TD*%
%TA.AperFunction,ComponentPad*%
%ADD14R,2.540000X1.905000*%
%TD*%
%TA.AperFunction,ComponentPad*%
%ADD15O,2.540000X1.905000*%
%TD*%
%TA.AperFunction,ComponentPad*%
%ADD16RoundRect,0.444500X0.444500X-1.460500X0.444500X1.460500X-0.444500X1.460500X-0.444500X-1.460500X0*%
%TD*%
%TA.AperFunction,ComponentPad*%
%ADD17RoundRect,0.444500X1.460500X-0.444500X1.460500X0.444500X-1.460500X0.444500X-1.460500X-0.444500X0*%
%TD*%
%TA.AperFunction,ComponentPad*%
%ADD18C,3.302000*%
%TD*%
%TA.AperFunction,ComponentPad*%
%ADD19RoundRect,0.444500X0.825500X-0.444500X0.825500X0.444500X-0.825500X0.444500X-0.825500X-0.444500X0*%
%TD*%
%TA.AperFunction,ComponentPad*%
%ADD20RoundRect,0.476250X0.476250X-0.793750X0.476250X0.793750X-0.476250X0.793750X-0.476250X-0.793750X0*%
%TD*%
%TA.AperFunction,ComponentPad*%
%ADD21O,2.032000X2.540000*%
%TD*%
%TA.AperFunction,ViaPad*%
%ADD22C,2.286000*%
%TD*%
%TA.AperFunction,Conductor*%
%ADD23C,1.270000*%
%TD*%
G04 APERTURE END LIST*
D10*
%TO.P,U2,1*%
%TO.N,Net-(A2-Pad6)*%
X49276000Y-39116000D03*
D11*
%TO.P,U2,2*%
%TO.N,Net-(A1-Pad6)*%
X51816000Y-39116000D03*
%TO.P,U2,3*%
X51816000Y-46736000D03*
%TO.P,U2,4*%
%TO.N,Net-(R4-Pad2)*%
X49276000Y-46736000D03*
%TD*%
D12*
%TO.P,R8,1*%
%TO.N,Net-(A1-Pad5)*%
X12700000Y-47752000D03*
D13*
%TO.P,R8,2*%
%TO.N,Net-(R8-Pad2)*%
X20320000Y-47752000D03*
%TD*%
D12*
%TO.P,R7,1*%
%TO.N,Net-(A1-Pad24)*%
X41402000Y-51308000D03*
D13*
%TO.P,R7,2*%
%TO.N,Net-(R6-Pad2)*%
X49022000Y-51308000D03*
%TD*%
D10*
%TO.P,U4,1*%
%TO.N,Net-(A2-Pad3)*%
X24135000Y-21082000D03*
D11*
%TO.P,U4,2*%
%TO.N,Net-(A1-Pad6)*%
X21595000Y-21082000D03*
%TO.P,U4,3*%
X21595000Y-13462000D03*
%TO.P,U4,4*%
%TO.N,Net-(R8-Pad2)*%
X24135000Y-13462000D03*
%TD*%
D12*
%TO.P,R4,1*%
%TO.N,Net-(A1-Pad5)*%
X10414000Y-52324000D03*
D13*
%TO.P,R4,2*%
%TO.N,Net-(R4-Pad2)*%
X18034000Y-52324000D03*
%TD*%
D12*
%TO.P,R6,1*%
%TO.N,Net-(A1-Pad5)*%
X57404000Y-32004000D03*
D13*
%TO.P,R6,2*%
%TO.N,Net-(R6-Pad2)*%
X57404000Y-39624000D03*
%TD*%
D14*
%TO.P,U3,1*%
%TO.N,Net-(A2-Pad1)*%
X41910000Y-16515000D03*
D15*
%TO.P,U3,2*%
%TO.N,Net-(A1-Pad6)*%
X41910000Y-13975000D03*
%TO.P,U3,3*%
X49530000Y-13975000D03*
%TO.P,U3,4*%
%TO.N,Net-(R6-Pad2)*%
X49530000Y-16515000D03*
%TD*%
D14*
%TO.P,U1,1*%
%TO.N,Net-(A2-Pad4)*%
X52070000Y-26167000D03*
D15*
%TO.P,U1,2*%
%TO.N,Net-(A1-Pad6)*%
X52070000Y-23627000D03*
%TO.P,U1,3*%
X59690000Y-23627000D03*
%TO.P,U1,4*%
%TO.N,Net-(R2-Pad2)*%
X59690000Y-26167000D03*
%TD*%
D12*
%TO.P,R2,1*%
%TO.N,Net-(A1-Pad5)*%
X17272000Y-43180000D03*
D13*
%TO.P,R2,2*%
%TO.N,Net-(R2-Pad2)*%
X24892000Y-43180000D03*
%TD*%
D16*
%TO.P,A2,1,RY+*%
%TO.N,Net-(A2-Pad1)*%
X38608000Y-21590000D03*
%TO.P,A2,2,RYc*%
%TO.N,Net-(A1-Pad5)*%
X36068000Y-21590000D03*
%TO.P,A2,3,RY-*%
%TO.N,Net-(A2-Pad3)*%
X33528000Y-21590000D03*
D17*
%TO.P,A2,4,RX+*%
%TO.N,Net-(A2-Pad4)*%
X46482000Y-29464000D03*
%TO.P,A2,5,RXc*%
%TO.N,Net-(A1-Pad5)*%
X46482000Y-32004000D03*
%TO.P,A2,6,RX-*%
%TO.N,Net-(A2-Pad6)*%
X46482000Y-34544000D03*
D12*
%TO.P,A2,7,SW1*%
%TO.N,Net-(A1-Pad23)*%
X27432000Y-35560000D03*
X27432000Y-28448000D03*
%TO.P,A2,8,SW2*%
%TO.N,Net-(A1-Pad6)*%
X23114000Y-28448000D03*
X23114000Y-35560000D03*
D18*
%TO.P,A2,9,anclaje*%
%TO.N,unconnected-(A2-Pad9)*%
X28829000Y-24130000D03*
X43307000Y-39878000D03*
X43307000Y-24130000D03*
X28829000Y-39878000D03*
%TD*%
D12*
%TO.P,R3,1*%
%TO.N,Net-(A1-Pad25)*%
X36830000Y-45720000D03*
D13*
%TO.P,R3,2*%
%TO.N,Net-(R2-Pad2)*%
X29210000Y-45720000D03*
%TD*%
D19*
%TO.P,DISP1,1,GND*%
%TO.N,Net-(A1-Pad6)*%
X93218000Y-35306000D03*
%TO.P,DISP1,2,VCC*%
%TO.N,Net-(A1-Pad4)*%
X93218000Y-32766000D03*
%TO.P,DISP1,3,SCL*%
%TO.N,Net-(A1-Pad14)*%
X93218000Y-30226000D03*
%TO.P,DISP1,4,SDA*%
%TO.N,Net-(A1-Pad13)*%
X93218000Y-27686000D03*
%TD*%
D12*
%TO.P,R9,1*%
%TO.N,Net-(A1-Pad26)*%
X34290000Y-49784000D03*
D13*
%TO.P,R9,2*%
%TO.N,Net-(R8-Pad2)*%
X26670000Y-49784000D03*
%TD*%
D12*
%TO.P,R5,1*%
%TO.N,Net-(A1-Pad27)*%
X31242000Y-52832000D03*
D13*
%TO.P,R5,2*%
%TO.N,Net-(R4-Pad2)*%
X23622000Y-52832000D03*
%TD*%
D12*
%TO.P,R1,1*%
%TO.N,Net-(A1-Pad5)*%
X17018000Y-38608000D03*
D13*
%TO.P,R1,2*%
%TO.N,Net-(A1-Pad23)*%
X9398000Y-38608000D03*
%TD*%
D20*
%TO.P,A1,1,NC*%
%TO.N,unconnected-(A1-Pad1)*%
X28448000Y-8128000D03*
D11*
%TO.P,A1,2,IOREF*%
%TO.N,unconnected-(A1-Pad2)*%
X30988000Y-8128000D03*
D21*
%TO.P,A1,3,~{RESET}*%
%TO.N,unconnected-(A1-Pad3)*%
X33528000Y-8128000D03*
X33528000Y-8128000D03*
D11*
%TO.P,A1,4,3V3*%
%TO.N,Net-(A1-Pad4)*%
X36068000Y-8128000D03*
%TO.P,A1,5,+5V*%
%TO.N,Net-(A1-Pad5)*%
X38608000Y-8128000D03*
%TO.P,A1,6,GND*%
%TO.N,Net-(A1-Pad6)*%
X41148000Y-8128000D03*
%TO.P,A1,7,GND*%
%TO.N,unconnected-(A1-Pad7)*%
X43688000Y-8128000D03*
%TO.P,A1,8,VIN*%
%TO.N,unconnected-(A1-Pad8)*%
X46228000Y-8128000D03*
%TO.P,A1,9,A0*%
%TO.N,unconnected-(A1-Pad9)*%
X51308000Y-8128000D03*
%TO.P,A1,10,A1*%
%TO.N,unconnected-(A1-Pad10)*%
X53848000Y-8128000D03*
%TO.P,A1,11,A2*%
%TO.N,unconnected-(A1-Pad11)*%
X56388000Y-8128000D03*
%TO.P,A1,12,A3*%
%TO.N,unconnected-(A1-Pad12)*%
X58928000Y-8128000D03*
%TO.P,A1,13,SDA/A4*%
%TO.N,Net-(A1-Pad13)*%
X61468000Y-8128000D03*
%TO.P,A1,14,SCL/A5*%
%TO.N,Net-(A1-Pad14)*%
X64008000Y-8128000D03*
%TO.P,A1,15,D0/RX*%
%TO.N,unconnected-(A1-Pad15)*%
X64008000Y-56388000D03*
%TO.P,A1,16,D1/TX*%
%TO.N,unconnected-(A1-Pad16)*%
X61468000Y-56388000D03*
%TO.P,A1,17,D2*%
%TO.N,unconnected-(A1-Pad17)*%
X58928000Y-56388000D03*
%TO.P,A1,18,D3*%
%TO.N,unconnected-(A1-Pad18)*%
X56388000Y-56388000D03*
%TO.P,A1,19,D4*%
%TO.N,unconnected-(A1-Pad19)*%
X53848000Y-56388000D03*
%TO.P,A1,20,D5*%
%TO.N,unconnected-(A1-Pad20)*%
X51308000Y-56388000D03*
%TO.P,A1,21,D6*%
%TO.N,unconnected-(A1-Pad21)*%
X48768000Y-56388000D03*
%TO.P,A1,22,D7*%
%TO.N,unconnected-(A1-Pad22)*%
X46228000Y-56388000D03*
%TO.P,A1,23,D8*%
%TO.N,Net-(A1-Pad23)*%
X42168000Y-56388000D03*
%TO.P,A1,24,D9*%
%TO.N,Net-(A1-Pad24)*%
X39628000Y-56388000D03*
%TO.P,A1,25,D10*%
%TO.N,Net-(A1-Pad25)*%
X37088000Y-56388000D03*
%TO.P,A1,26,D11*%
%TO.N,Net-(A1-Pad26)*%
X34548000Y-56388000D03*
%TO.P,A1,27,D12*%
%TO.N,Net-(A1-Pad27)*%
X32008000Y-56388000D03*
%TO.P,A1,28,D13*%
%TO.N,unconnected-(A1-Pad28)*%
X29468000Y-56388000D03*
%TO.P,A1,29,GND*%
%TO.N,unconnected-(A1-Pad29)*%
X26928000Y-56388000D03*
D10*
%TO.P,A1,30,AREF*%
%TO.N,unconnected-(A1-Pad30)*%
X24388000Y-56388000D03*
D11*
%TO.P,A1,31,SDA/A4*%
%TO.N,unconnected-(A1-Pad31)*%
X21848000Y-56388000D03*
%TO.P,A1,32,SCL/A5*%
%TO.N,unconnected-(A1-Pad32)*%
X19308000Y-56388000D03*
%TD*%
D22*
%TO.N,*%
X47752000Y-21336000D03*
%TO.N,Net-(A1-Pad4)*%
X48768000Y-4572000D03*
X84836000Y-22352000D03*
X34036000Y-12192000D03*
X76708000Y-30480000D03*
%TO.N,Net-(A1-Pad5)*%
X17272000Y-24892000D03*
X30480000Y-15748000D03*
%TO.N,Net-(R2-Pad2)*%
X63500000Y-24892000D03*
X63500000Y-46736000D03*
X24892000Y-46228000D03*
%TO.N,Net-(R4-Pad2)*%
X59436000Y-51308000D03*
X45720000Y-44196000D03*
X48260000Y-60960000D03*
X15748000Y-57404000D03*
%TO.N,Net-(R6-Pad2)*%
X66040000Y-17780000D03*
%TD*%
D23*
%TO.N,Net-(A1-Pad4)*%
X70612000Y-2540000D02*
X81026000Y-12954000D01*
X84328000Y-20320000D02*
X84328000Y-16764000D01*
X36068000Y-12192000D02*
X36068000Y-10668000D01*
X47244000Y-3048000D02*
X58420000Y-3048000D01*
X33528000Y-11684000D02*
X30988000Y-11684000D01*
X82804000Y-18796000D02*
X82804000Y-13716000D01*
X75184000Y-28956000D02*
X74676000Y-29464000D01*
X83566000Y-19558000D02*
X82804000Y-18796000D01*
X81534000Y-32766000D02*
X93218000Y-32766000D01*
X81534000Y-32766000D02*
X80518000Y-32766000D01*
X61468000Y-2540000D02*
X70104000Y-2540000D01*
X34036000Y-12192000D02*
X33528000Y-11684000D01*
X77978000Y-32258000D02*
X75184000Y-29464000D01*
X81788000Y-13716000D02*
X81788000Y-19304000D01*
X72136000Y-2540000D02*
X83058000Y-13462000D01*
X61468000Y-2540000D02*
X47752000Y-2540000D01*
X76962000Y-32766000D02*
X77978000Y-32766000D01*
X36068000Y-9652000D02*
X36068000Y-10668000D01*
X73660000Y-2540000D02*
X86868000Y-15748000D01*
X47752000Y-2540000D02*
X46990000Y-3302000D01*
X85344000Y-16764000D02*
X85344000Y-19812000D01*
X77978000Y-32766000D02*
X77978000Y-32258000D01*
X36068000Y-8128000D02*
X36068000Y-9652000D01*
X36068000Y-10668000D02*
X34544000Y-12192000D01*
X70104000Y-2540000D02*
X72136000Y-2540000D01*
X85344000Y-19812000D02*
X84582000Y-20574000D01*
X34544000Y-12192000D02*
X34036000Y-12192000D01*
X30988000Y-11684000D02*
X30480000Y-12192000D01*
X46228000Y-4064000D02*
X45720000Y-4572000D01*
X83566000Y-19558000D02*
X83820000Y-19304000D01*
X46990000Y-3302000D02*
X47244000Y-3048000D01*
X81280000Y-18796000D02*
X81280000Y-13208000D01*
X46990000Y-3302000D02*
X46228000Y-4064000D01*
X86868000Y-15748000D02*
X86868000Y-21844000D01*
X34036000Y-11176000D02*
X34036000Y-12192000D01*
X83820000Y-19304000D02*
X83820000Y-17272000D01*
X81280000Y-13208000D02*
X81026000Y-12954000D01*
X48768000Y-4572000D02*
X49276000Y-4064000D01*
X30480000Y-12192000D02*
X30988000Y-12700000D01*
X74676000Y-29464000D02*
X74676000Y-30480000D01*
X83820000Y-17272000D02*
X83820000Y-15240000D01*
X56388000Y-4064000D02*
X57404000Y-4064000D01*
X84582000Y-20574000D02*
X83566000Y-19558000D01*
X81788000Y-19304000D02*
X81280000Y-18796000D01*
X57912000Y-4572000D02*
X58420000Y-4064000D01*
X85852000Y-16256000D02*
X85852000Y-21336000D01*
X75184000Y-29464000D02*
X75184000Y-28956000D01*
X57404000Y-4064000D02*
X58420000Y-4064000D01*
X34544000Y-10668000D02*
X34036000Y-11176000D01*
X76708000Y-30480000D02*
X78994000Y-32766000D01*
X46228000Y-4064000D02*
X56388000Y-4064000D01*
X49276000Y-4064000D02*
X56388000Y-4064000D01*
X72136000Y-2540000D02*
X73660000Y-2540000D01*
X70104000Y-2540000D02*
X70612000Y-2540000D01*
X84582000Y-20574000D02*
X84328000Y-20320000D01*
X31496000Y-12700000D02*
X32004000Y-13208000D01*
X59944000Y-2540000D02*
X61468000Y-2540000D01*
X78994000Y-32766000D02*
X81534000Y-32766000D01*
X82804000Y-13716000D02*
X83058000Y-13462000D01*
X77978000Y-32766000D02*
X78994000Y-32766000D01*
X32004000Y-13208000D02*
X35052000Y-13208000D01*
X86360000Y-22352000D02*
X84836000Y-22352000D01*
X86868000Y-21844000D02*
X86360000Y-22352000D01*
X76708000Y-28956000D02*
X75184000Y-28956000D01*
X83820000Y-15240000D02*
X85344000Y-16764000D01*
X81788000Y-19304000D02*
X84836000Y-22352000D01*
X36068000Y-9652000D02*
X35052000Y-10668000D01*
X45720000Y-4572000D02*
X57912000Y-4572000D01*
X74676000Y-30480000D02*
X76962000Y-32766000D01*
X80518000Y-32766000D02*
X76708000Y-28956000D01*
X35052000Y-10668000D02*
X34544000Y-10668000D01*
X35052000Y-13208000D02*
X36068000Y-12192000D01*
X30988000Y-12700000D02*
X31496000Y-12700000D01*
X85344000Y-21336000D02*
X84582000Y-20574000D01*
X81026000Y-12954000D02*
X81788000Y-13716000D01*
X58420000Y-4064000D02*
X59944000Y-2540000D01*
X83058000Y-13462000D02*
X85852000Y-16256000D01*
X34036000Y-12192000D02*
X30480000Y-12192000D01*
X85852000Y-21336000D02*
X85344000Y-21336000D01*
%TO.N,Net-(A1-Pad5)*%
X43688000Y-32004000D02*
X46482000Y-32004000D01*
X34798000Y-17526000D02*
X36068000Y-16256000D01*
X41148000Y-34544000D02*
X41656000Y-34036000D01*
X33528000Y-16256000D02*
X34798000Y-17526000D01*
X10414000Y-50038000D02*
X16002000Y-44450000D01*
X38862000Y-27178000D02*
X36830000Y-27178000D01*
X57404000Y-32004000D02*
X56388000Y-33020000D01*
X41656000Y-34036000D02*
X42418000Y-33274000D01*
X30988000Y-16256000D02*
X30480000Y-15748000D01*
X11176000Y-49276000D02*
X12700000Y-47752000D01*
X50292000Y-30988000D02*
X49276000Y-32004000D01*
X17018000Y-38608000D02*
X17018000Y-25146000D01*
X35052000Y-25908000D02*
X35560000Y-25908000D01*
X36068000Y-18796000D02*
X36068000Y-16256000D01*
X10414000Y-52070000D02*
X11176000Y-51308000D01*
X42418000Y-33274000D02*
X43688000Y-32004000D01*
X38608000Y-13716000D02*
X38608000Y-8128000D01*
X34036000Y-25908000D02*
X34036000Y-27432000D01*
X43688000Y-32004000D02*
X41148000Y-29464000D01*
X39624000Y-26416000D02*
X37084000Y-26416000D01*
X57404000Y-31496000D02*
X56896000Y-30988000D01*
X46482000Y-32004000D02*
X49276000Y-32004000D01*
X38100000Y-28448000D02*
X40132000Y-28448000D01*
X11176000Y-51308000D02*
X11176000Y-50292000D01*
X37084000Y-27432000D02*
X38100000Y-28448000D01*
X18288000Y-38100000D02*
X18288000Y-36068000D01*
X16256000Y-44196000D02*
X16002000Y-44450000D01*
X16256000Y-42164000D02*
X16256000Y-40132000D01*
X36068000Y-21590000D02*
X36068000Y-18796000D01*
X33528000Y-16256000D02*
X30988000Y-16256000D01*
X16256000Y-40132000D02*
X16256000Y-25908000D01*
X17272000Y-24892000D02*
X17272000Y-22860000D01*
X46482000Y-32004000D02*
X42672000Y-32004000D01*
X30734000Y-15494000D02*
X30480000Y-15748000D01*
X16256000Y-22860000D02*
X16256000Y-25908000D01*
X34036000Y-27432000D02*
X41148000Y-34544000D01*
X41148000Y-27940000D02*
X39624000Y-26416000D01*
X16256000Y-25908000D02*
X17272000Y-24892000D01*
X41148000Y-30480000D02*
X41148000Y-29464000D01*
X51308000Y-33020000D02*
X50292000Y-33020000D01*
X17272000Y-43180000D02*
X18288000Y-42164000D01*
X49276000Y-32004000D02*
X50292000Y-32004000D01*
X51308000Y-33020000D02*
X50292000Y-32004000D01*
X35052000Y-26416000D02*
X35052000Y-25908000D01*
X41148000Y-29464000D02*
X41148000Y-27940000D01*
X10414000Y-52324000D02*
X10414000Y-50038000D01*
X42418000Y-31750000D02*
X41148000Y-30480000D01*
X17780000Y-22352000D02*
X16764000Y-22352000D01*
X36068000Y-25400000D02*
X36068000Y-21590000D01*
X17272000Y-35052000D02*
X17272000Y-24892000D01*
X40386000Y-30734000D02*
X42418000Y-32766000D01*
X17272000Y-22860000D02*
X17780000Y-22352000D01*
X12700000Y-47752000D02*
X17272000Y-43180000D01*
X57404000Y-32004000D02*
X57404000Y-31496000D01*
X17018000Y-25146000D02*
X17272000Y-24892000D01*
X17272000Y-43180000D02*
X16256000Y-42164000D01*
X10414000Y-52324000D02*
X10414000Y-52070000D01*
X37084000Y-27432000D02*
X40386000Y-30734000D01*
X50292000Y-32004000D02*
X57404000Y-32004000D01*
X18288000Y-42164000D02*
X18288000Y-38100000D01*
X35052000Y-27432000D02*
X35052000Y-26416000D01*
X42418000Y-33274000D02*
X42418000Y-31750000D01*
X35560000Y-25908000D02*
X36830000Y-27178000D01*
X10414000Y-50038000D02*
X11176000Y-49276000D01*
X40386000Y-30734000D02*
X40132000Y-30480000D01*
X18288000Y-22860000D02*
X17780000Y-22352000D01*
X40132000Y-28448000D02*
X38862000Y-27178000D01*
X56388000Y-33020000D02*
X51308000Y-33020000D01*
X17272000Y-43180000D02*
X17272000Y-38862000D01*
X42672000Y-32004000D02*
X42418000Y-31750000D01*
X36068000Y-23876000D02*
X34036000Y-25908000D01*
X17272000Y-38862000D02*
X17018000Y-38608000D01*
X17272000Y-44196000D02*
X17272000Y-43180000D01*
X36830000Y-27178000D02*
X37084000Y-27432000D01*
X11176000Y-50292000D02*
X11176000Y-49276000D01*
X37084000Y-26416000D02*
X36068000Y-25400000D01*
X16256000Y-40132000D02*
X16256000Y-44196000D01*
X11176000Y-50292000D02*
X17272000Y-44196000D01*
X36068000Y-16256000D02*
X33528000Y-16256000D01*
X16002000Y-44450000D02*
X17272000Y-43180000D01*
X17272000Y-24892000D02*
X18288000Y-25908000D01*
X41656000Y-34036000D02*
X35052000Y-27432000D01*
X42418000Y-33274000D02*
X41910000Y-33274000D01*
X16764000Y-22352000D02*
X16256000Y-22860000D01*
X36830000Y-15494000D02*
X38608000Y-13716000D01*
X56896000Y-30988000D02*
X50292000Y-30988000D01*
X18288000Y-25908000D02*
X18288000Y-22860000D01*
X18288000Y-36068000D02*
X17272000Y-35052000D01*
X50292000Y-33020000D02*
X49276000Y-32004000D01*
X34798000Y-17526000D02*
X36068000Y-18796000D01*
X42418000Y-32766000D02*
X42418000Y-33274000D01*
X36830000Y-15494000D02*
X30734000Y-15494000D01*
X40132000Y-30480000D02*
X40132000Y-28448000D01*
X36068000Y-16256000D02*
X36830000Y-15494000D01*
X18288000Y-25908000D02*
X18288000Y-38100000D01*
X41910000Y-33274000D02*
X35052000Y-26416000D01*
X36068000Y-21590000D02*
X36068000Y-23876000D01*
%TO.N,Net-(A1-Pad6)*%
X20320000Y-13716000D02*
X18288000Y-13716000D01*
X24384000Y-7112000D02*
X24384000Y-5080000D01*
X55372000Y-35560000D02*
X58928000Y-35560000D01*
X67564000Y-11684000D02*
X68580000Y-12700000D01*
X54864000Y-36068000D02*
X55372000Y-35560000D01*
X60960000Y-30480000D02*
X59436000Y-28956000D01*
X21595000Y-15499000D02*
X22860000Y-16764000D01*
X41910000Y-13970000D02*
X41148000Y-13208000D01*
X54864000Y-20828000D02*
X54864000Y-16764000D01*
X23114000Y-28448000D02*
X23114000Y-35560000D01*
X21336000Y-34544000D02*
X21336000Y-13721000D01*
X55880000Y-24892000D02*
X55880000Y-23876000D01*
X57404000Y-12700000D02*
X57404000Y-13208000D01*
X16764000Y-19304000D02*
X15748000Y-18288000D01*
X54615000Y-23627000D02*
X52070000Y-23627000D01*
X20320000Y-19812000D02*
X19812000Y-19304000D01*
X41910000Y-13975000D02*
X41910000Y-13970000D01*
X24384000Y-8128000D02*
X24384000Y-7112000D01*
X55372000Y-21844000D02*
X55880000Y-21336000D01*
X53848000Y-45720000D02*
X53848000Y-37084000D01*
X60960000Y-33528000D02*
X60960000Y-30480000D01*
X72136000Y-33020000D02*
X75184000Y-36068000D01*
X93472000Y-35560000D02*
X93218000Y-35306000D01*
X72136000Y-31496000D02*
X72390000Y-31750000D01*
X21595000Y-13462000D02*
X21595000Y-15499000D01*
X72136000Y-16256000D02*
X72136000Y-30480000D01*
X51816000Y-46736000D02*
X52832000Y-45720000D01*
X23114000Y-35560000D02*
X23114000Y-35306000D01*
X57912000Y-14224000D02*
X57912000Y-20320000D01*
X22860000Y-28194000D02*
X22860000Y-24892000D01*
X52832000Y-45720000D02*
X52832000Y-38608000D01*
X52324000Y-12700000D02*
X57404000Y-12700000D01*
X23876000Y-34544000D02*
X23876000Y-29210000D01*
X52070000Y-23627000D02*
X52070000Y-23622000D01*
X16764000Y-17780000D02*
X17272000Y-18288000D01*
X56896000Y-20828000D02*
X57150000Y-21082000D01*
X41148000Y-8128000D02*
X41148000Y-9652000D01*
X22352000Y-29210000D02*
X23114000Y-28448000D01*
X59944000Y-12192000D02*
X57912000Y-14224000D01*
X55880000Y-13716000D02*
X55880000Y-15240000D01*
X68580000Y-12700000D02*
X71120000Y-15240000D01*
X19304000Y-18288000D02*
X19304000Y-14732000D01*
X41148000Y-12192000D02*
X41148000Y-10668000D01*
X71120000Y-15240000D02*
X71628000Y-15748000D01*
X42672000Y-12700000D02*
X52324000Y-12700000D01*
X51816000Y-39116000D02*
X52578000Y-38354000D01*
X17780000Y-15240000D02*
X17780000Y-16256000D01*
X21595000Y-21082000D02*
X21595000Y-23617000D01*
X23114000Y-35560000D02*
X22352000Y-35560000D01*
X57145000Y-23627000D02*
X56129000Y-23627000D01*
X71628000Y-15748000D02*
X71628000Y-30480000D01*
X40132000Y-4572000D02*
X41148000Y-5588000D01*
X54864000Y-16764000D02*
X52075000Y-13975000D01*
X17780000Y-17272000D02*
X18288000Y-17272000D01*
X71628000Y-33528000D02*
X71628000Y-34544000D01*
X25908000Y-4572000D02*
X40132000Y-4572000D01*
X41148000Y-10668000D02*
X41148000Y-8128000D01*
X54864000Y-21844000D02*
X55372000Y-21844000D01*
X59690000Y-23627000D02*
X57145000Y-23627000D01*
X57404000Y-12700000D02*
X59944000Y-12700000D01*
X52832000Y-38608000D02*
X52578000Y-38354000D01*
X22352000Y-34544000D02*
X22352000Y-29210000D01*
X58928000Y-20828000D02*
X58928000Y-14732000D01*
X56896000Y-13716000D02*
X56896000Y-16256000D01*
X52578000Y-38354000D02*
X53848000Y-37084000D01*
X27432000Y-14732000D02*
X27432000Y-14224000D01*
X55880000Y-24892000D02*
X54615000Y-23627000D01*
X21590000Y-21082000D02*
X20320000Y-19812000D01*
X24892000Y-16764000D02*
X27432000Y-14224000D01*
X60960000Y-34544000D02*
X60960000Y-33528000D01*
X55880000Y-27940000D02*
X55880000Y-24892000D01*
X20320000Y-19812000D02*
X20320000Y-13716000D01*
X22352000Y-35560000D02*
X21336000Y-34544000D01*
X54356000Y-13716000D02*
X55880000Y-13716000D01*
X55880000Y-15240000D02*
X55372000Y-15748000D01*
X93472000Y-37084000D02*
X75184000Y-37084000D01*
X75184000Y-37084000D02*
X71628000Y-33528000D01*
X24384000Y-5080000D02*
X25908000Y-3556000D01*
X15748000Y-14732000D02*
X17780000Y-12700000D01*
X92456000Y-36068000D02*
X93218000Y-35306000D01*
X18288000Y-17272000D02*
X18288000Y-15748000D01*
X75184000Y-36068000D02*
X92456000Y-36068000D01*
X58928000Y-35560000D02*
X60960000Y-33528000D01*
X41148000Y-4064000D02*
X41148000Y-8128000D01*
X56129000Y-23627000D02*
X58928000Y-20828000D01*
X21595000Y-26929000D02*
X23114000Y-28448000D01*
X41148000Y-11176000D02*
X42672000Y-12700000D01*
X23114000Y-35306000D02*
X23368000Y-35052000D01*
X72136000Y-30480000D02*
X71628000Y-30988000D01*
X53848000Y-22860000D02*
X54864000Y-21844000D01*
X23368000Y-35052000D02*
X23876000Y-34544000D01*
X52075000Y-13975000D02*
X49530000Y-13975000D01*
X21595000Y-23617000D02*
X21595000Y-26929000D01*
X60452000Y-12192000D02*
X59944000Y-12192000D01*
X56896000Y-16256000D02*
X54356000Y-13716000D01*
X24384000Y-6096000D02*
X25908000Y-4572000D01*
X19812000Y-19304000D02*
X16764000Y-19304000D01*
X53848000Y-37084000D02*
X54864000Y-36068000D01*
X56129000Y-23627000D02*
X54615000Y-23627000D01*
X51816000Y-39116000D02*
X51816000Y-46736000D01*
X55372000Y-15748000D02*
X52324000Y-12700000D01*
X51816000Y-46736000D02*
X52832000Y-46736000D01*
X56896000Y-16256000D02*
X56896000Y-20828000D01*
X21336000Y-13721000D02*
X21595000Y-13462000D01*
X55880000Y-23876000D02*
X56129000Y-23627000D01*
X75184000Y-38100000D02*
X92456000Y-38100000D01*
X22860000Y-16764000D02*
X21595000Y-18029000D01*
X17780000Y-16256000D02*
X17780000Y-17272000D01*
X21595000Y-23627000D02*
X22860000Y-24892000D01*
X18288000Y-14732000D02*
X17780000Y-15240000D01*
X59944000Y-12700000D02*
X60452000Y-12192000D01*
X22860000Y-24892000D02*
X23368000Y-25400000D01*
X24892000Y-16764000D02*
X25400000Y-16764000D01*
X41148000Y-5588000D02*
X41148000Y-8128000D01*
X27432000Y-11176000D02*
X24384000Y-8128000D01*
X55880000Y-24892000D02*
X57145000Y-23627000D01*
X16764000Y-15240000D02*
X16764000Y-17780000D01*
X72136000Y-30480000D02*
X72136000Y-31496000D01*
X49530000Y-13975000D02*
X41910000Y-13975000D01*
X27432000Y-14732000D02*
X27940000Y-14224000D01*
X71628000Y-34544000D02*
X75184000Y-38100000D01*
X75946000Y-35306000D02*
X93218000Y-35306000D01*
X21595000Y-13462000D02*
X21595000Y-18029000D01*
X43180000Y-11684000D02*
X67564000Y-11684000D01*
X56896000Y-28956000D02*
X55880000Y-27940000D01*
X71628000Y-30480000D02*
X71628000Y-33020000D01*
X20833000Y-12700000D02*
X21595000Y-13462000D01*
X24384000Y-7112000D02*
X24384000Y-6096000D01*
X59436000Y-28956000D02*
X56896000Y-28956000D01*
X21595000Y-23617000D02*
X21595000Y-23627000D01*
X22860000Y-16764000D02*
X24892000Y-16764000D01*
X25400000Y-16764000D02*
X27432000Y-14732000D01*
X21595000Y-21082000D02*
X21590000Y-21082000D01*
X71628000Y-33020000D02*
X72136000Y-33020000D01*
X40640000Y-3556000D02*
X41148000Y-4064000D01*
X57150000Y-21082000D02*
X55372000Y-22860000D01*
X27940000Y-14224000D02*
X27940000Y-11684000D01*
X57404000Y-13208000D02*
X56896000Y-13716000D01*
X27940000Y-11684000D02*
X24384000Y-8128000D01*
X92456000Y-38100000D02*
X93472000Y-37084000D01*
X23368000Y-28194000D02*
X23114000Y-28448000D01*
X55372000Y-22860000D02*
X53848000Y-22860000D01*
X17780000Y-12700000D02*
X20833000Y-12700000D01*
X41910000Y-13975000D02*
X41910000Y-12954000D01*
X23876000Y-29210000D02*
X23114000Y-28448000D01*
X54864000Y-36068000D02*
X58420000Y-36068000D01*
X41910000Y-12954000D02*
X41148000Y-12192000D01*
X55880000Y-21336000D02*
X55880000Y-16256000D01*
X59436000Y-36068000D02*
X60960000Y-34544000D01*
X58420000Y-36068000D02*
X58928000Y-35560000D01*
X71628000Y-30988000D02*
X72390000Y-31750000D01*
X18288000Y-13716000D02*
X16764000Y-15240000D01*
X19304000Y-14732000D02*
X18288000Y-14732000D01*
X55880000Y-16256000D02*
X55372000Y-15748000D01*
X71628000Y-33020000D02*
X71628000Y-33528000D01*
X41148000Y-10668000D02*
X41148000Y-11176000D01*
X27432000Y-14224000D02*
X27432000Y-11176000D01*
X23114000Y-35306000D02*
X22352000Y-34544000D01*
X41148000Y-13208000D02*
X41148000Y-12192000D01*
X17272000Y-18288000D02*
X19304000Y-18288000D01*
X60960000Y-12700000D02*
X68580000Y-12700000D01*
X21595000Y-18029000D02*
X21595000Y-21082000D01*
X72390000Y-31750000D02*
X75946000Y-35306000D01*
X25908000Y-3556000D02*
X40640000Y-3556000D01*
X71120000Y-15240000D02*
X72136000Y-16256000D01*
X52070000Y-23622000D02*
X54864000Y-20828000D01*
X58420000Y-36068000D02*
X59436000Y-36068000D01*
X71628000Y-30480000D02*
X71628000Y-30988000D01*
X15748000Y-18288000D02*
X15748000Y-14732000D01*
X52832000Y-46736000D02*
X53848000Y-45720000D01*
X57912000Y-20320000D02*
X57150000Y-21082000D01*
X23368000Y-25400000D02*
X23368000Y-28194000D01*
X93472000Y-37084000D02*
X93472000Y-35560000D01*
X58928000Y-14732000D02*
X60960000Y-12700000D01*
X41148000Y-9652000D02*
X43180000Y-11684000D01*
X23114000Y-28448000D02*
X22860000Y-28194000D01*
%TO.N,Net-(A1-Pad23)*%
X4064000Y-42164000D02*
X4064000Y-40132000D01*
X6096000Y-58928000D02*
X5334000Y-58166000D01*
X28956000Y-33528000D02*
X29972000Y-33528000D01*
X28448000Y-36576000D02*
X27432000Y-35560000D01*
X44704000Y-53340000D02*
X44704000Y-48768000D01*
X42164000Y-44704000D02*
X38862000Y-41402000D01*
X40640000Y-61468000D02*
X42672000Y-59436000D01*
X9652000Y-35052000D02*
X9652000Y-38354000D01*
X9398000Y-38608000D02*
X9144000Y-38608000D01*
X29718000Y-33782000D02*
X28702000Y-33782000D01*
X38608000Y-41148000D02*
X38862000Y-41402000D01*
X36068000Y-40132000D02*
X34290000Y-38354000D01*
X6604000Y-59436000D02*
X3556000Y-56388000D01*
X13208000Y-59436000D02*
X6604000Y-59436000D01*
X3048000Y-55880000D02*
X3048000Y-56896000D01*
X9652000Y-38354000D02*
X9398000Y-38608000D01*
X9398000Y-38354000D02*
X9144000Y-38100000D01*
X38608000Y-39624000D02*
X38608000Y-36576000D01*
X38862000Y-41402000D02*
X37846000Y-40386000D01*
X6604000Y-36068000D02*
X7620000Y-36068000D01*
X42672000Y-56892000D02*
X42168000Y-56388000D01*
X30480000Y-34544000D02*
X33528000Y-34544000D01*
X42164000Y-46228000D02*
X36068000Y-40132000D01*
X5080000Y-39624000D02*
X5080000Y-40132000D01*
X30480000Y-28448000D02*
X27432000Y-28448000D01*
X4064000Y-40132000D02*
X7620000Y-36576000D01*
X44704000Y-48768000D02*
X42164000Y-46228000D01*
X29972000Y-29464000D02*
X28956000Y-29464000D01*
X37846000Y-40386000D02*
X37338000Y-39878000D01*
X38608000Y-36576000D02*
X37846000Y-35814000D01*
X34544000Y-40132000D02*
X34544000Y-38608000D01*
X8636000Y-36576000D02*
X8636000Y-37592000D01*
X28956000Y-32512000D02*
X29972000Y-33528000D01*
X33528000Y-38100000D02*
X33782000Y-37846000D01*
X28448000Y-33528000D02*
X28702000Y-33782000D01*
X42164000Y-46228000D02*
X42164000Y-44704000D01*
X3048000Y-46228000D02*
X3048000Y-55880000D01*
X6096000Y-35052000D02*
X8128000Y-35052000D01*
X3048000Y-46228000D02*
X3048000Y-36576000D01*
X32004000Y-33528000D02*
X33020000Y-33528000D01*
X44704000Y-53340000D02*
X45212000Y-52832000D01*
X39878000Y-37338000D02*
X39370000Y-36830000D01*
X33528000Y-40132000D02*
X33528000Y-38100000D01*
X30480000Y-36576000D02*
X28448000Y-36576000D01*
X38608000Y-39624000D02*
X40132000Y-38100000D01*
X3048000Y-44704000D02*
X3048000Y-46228000D01*
X34290000Y-38354000D02*
X33782000Y-37846000D01*
X3048000Y-36576000D02*
X5588000Y-34036000D01*
X8636000Y-34036000D02*
X9652000Y-35052000D01*
X32512000Y-36576000D02*
X30480000Y-36576000D01*
X29972000Y-30480000D02*
X28956000Y-30480000D01*
X30988000Y-36576000D02*
X32512000Y-38100000D01*
X37338000Y-39878000D02*
X36830000Y-39370000D01*
X3556000Y-37592000D02*
X4064000Y-37084000D01*
X29464000Y-35560000D02*
X27432000Y-35560000D01*
X7620000Y-60452000D02*
X14224000Y-60452000D01*
X27432000Y-33528000D02*
X29464000Y-35560000D01*
X3048000Y-56896000D02*
X7620000Y-61468000D01*
X3556000Y-44196000D02*
X6604000Y-41148000D01*
X28702000Y-33782000D02*
X29464000Y-34544000D01*
X40640000Y-60452000D02*
X42168000Y-58924000D01*
X28956000Y-31496000D02*
X28956000Y-30988000D01*
X28956000Y-30480000D02*
X32004000Y-33528000D01*
X9398000Y-38608000D02*
X9398000Y-38354000D01*
X5588000Y-34036000D02*
X8636000Y-34036000D01*
X5080000Y-40132000D02*
X4064000Y-39116000D01*
X40132000Y-38100000D02*
X40132000Y-37592000D01*
X8636000Y-35560000D02*
X8636000Y-36576000D01*
X37846000Y-36830000D02*
X37846000Y-35814000D01*
X4064000Y-39116000D02*
X4064000Y-38608000D01*
X42672000Y-59436000D02*
X42672000Y-57912000D01*
X8128000Y-35052000D02*
X8636000Y-35560000D01*
X39370000Y-36830000D02*
X37846000Y-36830000D01*
X27432000Y-33528000D02*
X27432000Y-28448000D01*
X7620000Y-36576000D02*
X7620000Y-36068000D01*
X27432000Y-35560000D02*
X27432000Y-33528000D01*
X42672000Y-57912000D02*
X42672000Y-56892000D01*
X9398000Y-38608000D02*
X9398000Y-39878000D01*
X30480000Y-34544000D02*
X29718000Y-33782000D01*
X7620000Y-36068000D02*
X7620000Y-37084000D01*
X40132000Y-37592000D02*
X39878000Y-37338000D01*
X30988000Y-33528000D02*
X28956000Y-31496000D01*
X45720000Y-48260000D02*
X42164000Y-44704000D01*
X29464000Y-34544000D02*
X30480000Y-34544000D01*
X9144000Y-38608000D02*
X6604000Y-41148000D01*
X7620000Y-61468000D02*
X40640000Y-61468000D01*
X33782000Y-37846000D02*
X32512000Y-36576000D01*
X37084000Y-36576000D02*
X29972000Y-29464000D01*
X37084000Y-38100000D02*
X37084000Y-36576000D01*
X37084000Y-39624000D02*
X37084000Y-38100000D01*
X5080000Y-57912000D02*
X7620000Y-60452000D01*
X32512000Y-40132000D02*
X33528000Y-40132000D01*
X6604000Y-41148000D02*
X3048000Y-44704000D01*
X38608000Y-38608000D02*
X39878000Y-37338000D01*
X3556000Y-45720000D02*
X3556000Y-37592000D01*
X37846000Y-40386000D02*
X38608000Y-39624000D01*
X37846000Y-35814000D02*
X30480000Y-28448000D01*
X7620000Y-37084000D02*
X5080000Y-39624000D01*
X3048000Y-55880000D02*
X5080000Y-57912000D01*
X37846000Y-40386000D02*
X37846000Y-36830000D01*
X45212000Y-52832000D02*
X45212000Y-49276000D01*
X45212000Y-49276000D02*
X44704000Y-48768000D01*
X42168000Y-58924000D02*
X42168000Y-56388000D01*
X28956000Y-30988000D02*
X28956000Y-32512000D01*
X38608000Y-39624000D02*
X38608000Y-38608000D01*
X28448000Y-29972000D02*
X28448000Y-33528000D01*
X30480000Y-36576000D02*
X30988000Y-36576000D01*
X9398000Y-39878000D02*
X3556000Y-45720000D01*
X42672000Y-57912000D02*
X42672000Y-55372000D01*
X37338000Y-39878000D02*
X37084000Y-39624000D01*
X45720000Y-52324000D02*
X45720000Y-48260000D01*
X4064000Y-37084000D02*
X6096000Y-35052000D01*
X28956000Y-30480000D02*
X28956000Y-30988000D01*
X29972000Y-33528000D02*
X30988000Y-33528000D01*
X8636000Y-37592000D02*
X7620000Y-38608000D01*
X33528000Y-40132000D02*
X34544000Y-40132000D01*
X7620000Y-38608000D02*
X4064000Y-42164000D01*
X45212000Y-52832000D02*
X45720000Y-52324000D01*
X34544000Y-38608000D02*
X34290000Y-38354000D01*
X34544000Y-40132000D02*
X36068000Y-40132000D01*
X5334000Y-58166000D02*
X5080000Y-57912000D01*
X42926000Y-55118000D02*
X44704000Y-53340000D01*
X42168000Y-55876000D02*
X42926000Y-55118000D01*
X14224000Y-60452000D02*
X40640000Y-60452000D01*
X28702000Y-33782000D02*
X28956000Y-33528000D01*
X13208000Y-59436000D02*
X12700000Y-58928000D01*
X33528000Y-34544000D02*
X37084000Y-38100000D01*
X38608000Y-39624000D02*
X38608000Y-41148000D01*
X14224000Y-60452000D02*
X13208000Y-59436000D01*
X42672000Y-55372000D02*
X42926000Y-55118000D01*
X6604000Y-59436000D02*
X5334000Y-58166000D01*
X3556000Y-56388000D02*
X3556000Y-45720000D01*
X42168000Y-56388000D02*
X42168000Y-55876000D01*
X33020000Y-35560000D02*
X29464000Y-35560000D01*
X28956000Y-29464000D02*
X28448000Y-29972000D01*
X4064000Y-40132000D02*
X4064000Y-38608000D01*
X12700000Y-58928000D02*
X6096000Y-58928000D01*
X33020000Y-33528000D02*
X29972000Y-30480000D01*
X4064000Y-38608000D02*
X6604000Y-36068000D01*
X30988000Y-33528000D02*
X32004000Y-33528000D01*
X36830000Y-39370000D02*
X33020000Y-35560000D01*
X32512000Y-38100000D02*
X32512000Y-40132000D01*
X3556000Y-45720000D02*
X3556000Y-44196000D01*
%TO.N,Net-(A1-Pad24)*%
X42164000Y-49784000D02*
X41656000Y-49276000D01*
X41402000Y-51308000D02*
X42164000Y-51308000D01*
X39628000Y-54360000D02*
X39624000Y-54356000D01*
X41402000Y-52578000D02*
X41402000Y-51308000D01*
X40640000Y-49784000D02*
X40640000Y-52832000D01*
X39628000Y-56388000D02*
X39628000Y-54360000D01*
X41148000Y-49276000D02*
X40640000Y-49784000D01*
X39624000Y-54356000D02*
X40894000Y-53086000D01*
X41656000Y-49276000D02*
X41148000Y-49276000D01*
X40640000Y-52832000D02*
X40894000Y-53086000D01*
X40894000Y-53086000D02*
X41402000Y-52578000D01*
X42164000Y-51308000D02*
X42164000Y-49784000D01*
%TO.N,Net-(A1-Pad25)*%
X37084000Y-52832000D02*
X37084000Y-56384000D01*
X36576000Y-45720000D02*
X35560000Y-44704000D01*
X34544000Y-43180000D02*
X34544000Y-44196000D01*
X37084000Y-56384000D02*
X37088000Y-56388000D01*
X39116000Y-47752000D02*
X37084000Y-45720000D01*
X38100000Y-51816000D02*
X38100000Y-46736000D01*
X37592000Y-47244000D02*
X37592000Y-48260000D01*
X36830000Y-45720000D02*
X36576000Y-45720000D01*
X34544000Y-44196000D02*
X34544000Y-45212000D01*
X36830000Y-45720000D02*
X36830000Y-46482000D01*
X38100000Y-46736000D02*
X37084000Y-45720000D01*
X37592000Y-49784000D02*
X37592000Y-52324000D01*
X37088000Y-52828000D02*
X38100000Y-51816000D01*
X39116000Y-47752000D02*
X39116000Y-47244000D01*
X37592000Y-49784000D02*
X39116000Y-48260000D01*
X37592000Y-52324000D02*
X37084000Y-52832000D01*
X37084000Y-45720000D02*
X36830000Y-45720000D01*
X37088000Y-56388000D02*
X37088000Y-52828000D01*
X37592000Y-48260000D02*
X37592000Y-49784000D01*
X36830000Y-46482000D02*
X37592000Y-47244000D01*
X35052000Y-43180000D02*
X34544000Y-43180000D01*
X39116000Y-48260000D02*
X39116000Y-47752000D01*
X34544000Y-45212000D02*
X37592000Y-48260000D01*
X39116000Y-47244000D02*
X35052000Y-43180000D01*
%TO.N,Net-(A1-Pad26)*%
X34290000Y-49784000D02*
X34544000Y-49530000D01*
X34036000Y-49530000D02*
X34036000Y-48768000D01*
X34290000Y-49784000D02*
X34290000Y-51562000D01*
X32512000Y-49276000D02*
X32512000Y-49784000D01*
X34548000Y-51820000D02*
X34548000Y-56388000D01*
X34290000Y-51562000D02*
X34548000Y-51820000D01*
X34544000Y-49530000D02*
X34544000Y-48768000D01*
X32512000Y-49784000D02*
X34290000Y-51562000D01*
X34290000Y-49784000D02*
X34036000Y-49530000D01*
X33020000Y-48768000D02*
X32512000Y-49276000D01*
X34548000Y-56388000D02*
X34548000Y-50042000D01*
X34036000Y-48768000D02*
X33020000Y-48768000D01*
X34548000Y-50042000D02*
X34290000Y-49784000D01*
%TO.N,Net-(A1-Pad27)*%
X32008000Y-53598000D02*
X31242000Y-52832000D01*
X32000000Y-54360000D02*
X32008000Y-54360000D01*
X31496000Y-54864000D02*
X32000000Y-54360000D01*
X32008000Y-55884000D02*
X32008000Y-56388000D01*
X31496000Y-53086000D02*
X31242000Y-52832000D01*
X32008000Y-56388000D02*
X32008000Y-55376000D01*
X31496000Y-54864000D02*
X31496000Y-53086000D01*
X31242000Y-52832000D02*
X31242000Y-53086000D01*
X31242000Y-53086000D02*
X32008000Y-53852000D01*
X32008000Y-56388000D02*
X32008000Y-53598000D01*
X32008000Y-54360000D02*
X32008000Y-55884000D01*
X32008000Y-53852000D02*
X32008000Y-54360000D01*
X32008000Y-55376000D02*
X31496000Y-54864000D01*
%TO.N,Net-(A2-Pad1)*%
X40640000Y-17272000D02*
X41148000Y-17780000D01*
X41148000Y-17780000D02*
X39624000Y-19304000D01*
X41910000Y-18288000D02*
X38608000Y-21590000D01*
X38608000Y-19304000D02*
X40132000Y-17780000D01*
X38608000Y-21590000D02*
X38608000Y-17272000D01*
X40132000Y-21844000D02*
X42164000Y-19812000D01*
X38608000Y-21590000D02*
X38608000Y-19304000D01*
X38862000Y-21844000D02*
X40132000Y-21844000D01*
X42164000Y-19812000D02*
X42164000Y-16769000D01*
X38608000Y-19304000D02*
X38608000Y-18288000D01*
X41910000Y-16515000D02*
X41910000Y-18288000D01*
X42164000Y-16769000D02*
X41910000Y-16515000D01*
X39624000Y-19304000D02*
X38608000Y-19304000D01*
X38608000Y-21590000D02*
X38862000Y-21844000D01*
X38608000Y-17272000D02*
X39365000Y-16515000D01*
X38608000Y-18288000D02*
X39624000Y-17272000D01*
X39624000Y-17272000D02*
X40640000Y-17272000D01*
X39365000Y-16515000D02*
X41910000Y-16515000D01*
%TO.N,Net-(A2-Pad3)*%
X25908000Y-18796000D02*
X32004000Y-18796000D01*
X32004000Y-18796000D02*
X33528000Y-20320000D01*
X24638000Y-21082000D02*
X26162000Y-21082000D01*
X33528000Y-21336000D02*
X31496000Y-19304000D01*
X26162000Y-21082000D02*
X26924000Y-20320000D01*
X31496000Y-19304000D02*
X26416000Y-19304000D01*
X24135000Y-21082000D02*
X24638000Y-21082000D01*
X33528000Y-20320000D02*
X33528000Y-21590000D01*
X32766000Y-21590000D02*
X33528000Y-21590000D01*
X24135000Y-20569000D02*
X25908000Y-18796000D01*
X33528000Y-21590000D02*
X33528000Y-21336000D01*
X26924000Y-20320000D02*
X31496000Y-20320000D01*
X26416000Y-19304000D02*
X24638000Y-21082000D01*
X24135000Y-21082000D02*
X24135000Y-20569000D01*
X31496000Y-20320000D02*
X32766000Y-21590000D01*
%TO.N,Net-(A2-Pad4)*%
X48773000Y-29464000D02*
X52070000Y-26167000D01*
X49276000Y-27432000D02*
X49276000Y-26924000D01*
X48260000Y-28448000D02*
X48260000Y-27940000D01*
X51816000Y-27432000D02*
X51308000Y-27940000D01*
X51313000Y-26924000D02*
X49276000Y-26924000D01*
X52070000Y-26167000D02*
X51313000Y-26924000D01*
X46736000Y-28448000D02*
X48260000Y-28448000D01*
X46228000Y-27940000D02*
X46736000Y-28448000D01*
X46482000Y-29210000D02*
X45720000Y-28448000D01*
X47244000Y-26924000D02*
X46228000Y-27940000D01*
X46985000Y-26167000D02*
X52070000Y-26167000D01*
X46482000Y-29464000D02*
X46482000Y-29210000D01*
X48768000Y-28956000D02*
X48260000Y-28448000D01*
X45720000Y-28448000D02*
X45720000Y-27432000D01*
X52075000Y-26167000D02*
X53340000Y-27432000D01*
X52832000Y-28956000D02*
X51308000Y-28956000D01*
X52832000Y-28448000D02*
X51816000Y-27432000D01*
X51308000Y-28956000D02*
X48768000Y-28956000D01*
X52832000Y-28956000D02*
X52832000Y-28448000D01*
X51308000Y-27940000D02*
X51308000Y-28956000D01*
X48260000Y-27940000D02*
X47752000Y-27432000D01*
X52070000Y-26167000D02*
X52075000Y-26167000D01*
X45720000Y-27432000D02*
X46985000Y-26167000D01*
X53340000Y-27432000D02*
X53340000Y-28448000D01*
X46482000Y-29464000D02*
X48773000Y-29464000D01*
X49276000Y-26924000D02*
X47244000Y-26924000D01*
X48260000Y-28448000D02*
X49276000Y-27432000D01*
X53340000Y-28448000D02*
X52832000Y-28956000D01*
%TO.N,Net-(A2-Pad6)*%
X46736000Y-36576000D02*
X47244000Y-36068000D01*
X47244000Y-37084000D02*
X46736000Y-36576000D01*
X47244000Y-34544000D02*
X46482000Y-34544000D01*
X49276000Y-39116000D02*
X48260000Y-39116000D01*
X49276000Y-35560000D02*
X49276000Y-36576000D01*
X46736000Y-36576000D02*
X46228000Y-36068000D01*
X49276000Y-39116000D02*
X46736000Y-36576000D01*
X46228000Y-36068000D02*
X46736000Y-35560000D01*
X46736000Y-35560000D02*
X49276000Y-35560000D01*
X50292000Y-35052000D02*
X49276000Y-35052000D01*
X49276000Y-35052000D02*
X48768000Y-34544000D01*
X49276000Y-37592000D02*
X49276000Y-39116000D01*
X48768000Y-38608000D02*
X48768000Y-36068000D01*
X48768000Y-36068000D02*
X47244000Y-34544000D01*
X48260000Y-39116000D02*
X45212000Y-36068000D01*
X49276000Y-36576000D02*
X48768000Y-37084000D01*
X50292000Y-36576000D02*
X49276000Y-37592000D01*
X48768000Y-34544000D02*
X46482000Y-34544000D01*
X45212000Y-36068000D02*
X45212000Y-35814000D01*
X47244000Y-36068000D02*
X48768000Y-36068000D01*
X48768000Y-37084000D02*
X47244000Y-37084000D01*
X45212000Y-35814000D02*
X46482000Y-34544000D01*
X50292000Y-35052000D02*
X50292000Y-36576000D01*
X49276000Y-39116000D02*
X48768000Y-38608000D01*
%TO.N,Net-(R2-Pad2)*%
X31496000Y-45720000D02*
X30480000Y-46736000D01*
X66040000Y-46736000D02*
X65024000Y-46736000D01*
X62225000Y-26167000D02*
X60701000Y-26167000D01*
X26670000Y-44958000D02*
X25908000Y-45720000D01*
X62484000Y-19304000D02*
X62484000Y-16256000D01*
X25908000Y-45720000D02*
X24892000Y-45720000D01*
X66040000Y-44196000D02*
X63500000Y-46736000D01*
X30480000Y-43688000D02*
X30480000Y-44704000D01*
X61976000Y-16764000D02*
X63500000Y-15240000D01*
X63500000Y-15240000D02*
X67564000Y-15240000D01*
X67056000Y-48260000D02*
X62992000Y-48260000D01*
X29210000Y-45720000D02*
X29972000Y-45720000D01*
X62484000Y-16256000D02*
X63500000Y-15240000D01*
X61976000Y-18796000D02*
X61976000Y-16764000D01*
X25146000Y-41656000D02*
X26797000Y-43307000D01*
X28956000Y-43688000D02*
X27178000Y-43688000D01*
X63500000Y-23368000D02*
X63500000Y-20320000D01*
X59690000Y-26167000D02*
X60203000Y-26167000D01*
X66548000Y-46228000D02*
X66040000Y-46736000D01*
X62484000Y-46736000D02*
X65024000Y-44196000D01*
X29210000Y-45720000D02*
X29210000Y-46482000D01*
X23368000Y-44704000D02*
X23368000Y-41656000D01*
X29464000Y-45720000D02*
X29210000Y-45720000D01*
X26670000Y-44958000D02*
X24892000Y-43180000D01*
X62992000Y-19812000D02*
X62992000Y-24384000D01*
X27940000Y-46736000D02*
X25400000Y-46736000D01*
X23876000Y-44704000D02*
X25908000Y-44704000D01*
X66802000Y-34290000D02*
X66040000Y-35052000D01*
X28956000Y-46736000D02*
X27940000Y-46736000D01*
X66040000Y-35052000D02*
X66040000Y-43180000D01*
X62484000Y-47752000D02*
X62484000Y-46736000D01*
X65024000Y-44196000D02*
X66040000Y-44196000D01*
X68072000Y-46228000D02*
X68072000Y-33528000D01*
X30480000Y-45212000D02*
X29845000Y-44577000D01*
X30480000Y-46736000D02*
X27940000Y-46736000D01*
X62738000Y-24638000D02*
X63500000Y-23876000D01*
X64008000Y-47244000D02*
X67056000Y-47244000D01*
X66802000Y-34290000D02*
X66802000Y-45974000D01*
X66040000Y-43180000D02*
X66040000Y-44196000D01*
X69088000Y-30480000D02*
X69088000Y-32004000D01*
X63500000Y-24892000D02*
X63246000Y-24638000D01*
X63500000Y-25400000D02*
X63500000Y-24892000D01*
X24892000Y-45720000D02*
X24892000Y-46228000D01*
X62992000Y-19812000D02*
X61976000Y-18796000D01*
X27559000Y-44069000D02*
X28067000Y-44577000D01*
X61976000Y-26924000D02*
X63500000Y-25400000D01*
X69088000Y-32004000D02*
X67818000Y-33274000D01*
X27178000Y-43688000D02*
X26797000Y-43307000D01*
X69088000Y-30480000D02*
X69088000Y-46228000D01*
X62992000Y-48260000D02*
X62484000Y-47752000D01*
X31496000Y-44704000D02*
X31496000Y-45720000D01*
X63500000Y-23876000D02*
X63500000Y-23368000D01*
X28956000Y-43688000D02*
X30480000Y-43688000D01*
X65024000Y-46736000D02*
X65024000Y-46228000D01*
X30480000Y-44704000D02*
X29464000Y-45720000D01*
X27432000Y-45720000D02*
X26670000Y-44958000D01*
X65024000Y-44196000D02*
X66040000Y-43180000D01*
X29210000Y-46482000D02*
X28956000Y-46736000D01*
X30480000Y-43688000D02*
X31496000Y-44704000D01*
X29210000Y-45720000D02*
X25908000Y-45720000D01*
X61209000Y-26167000D02*
X62738000Y-24638000D01*
X25400000Y-46736000D02*
X24892000Y-46228000D01*
X59690000Y-26167000D02*
X61209000Y-26167000D01*
X24892000Y-43180000D02*
X24892000Y-43688000D01*
X27559000Y-44069000D02*
X27940000Y-43688000D01*
X60701000Y-26167000D02*
X59690000Y-26167000D01*
X66802000Y-45974000D02*
X66548000Y-46228000D01*
X63500000Y-24892000D02*
X63500000Y-23368000D01*
X62992000Y-19812000D02*
X62484000Y-19304000D01*
X67818000Y-33274000D02*
X66802000Y-34290000D01*
X29210000Y-45720000D02*
X27432000Y-45720000D01*
X62992000Y-24384000D02*
X63500000Y-24892000D01*
X26797000Y-43307000D02*
X27559000Y-44069000D01*
X29845000Y-44577000D02*
X28067000Y-44577000D01*
X60960000Y-26924000D02*
X61976000Y-26924000D01*
X24892000Y-46228000D02*
X24892000Y-43180000D01*
X24892000Y-46228000D02*
X23368000Y-44704000D01*
X63500000Y-20320000D02*
X62992000Y-19812000D01*
X23368000Y-41656000D02*
X25146000Y-41656000D01*
X63246000Y-24638000D02*
X62738000Y-24638000D01*
X63500000Y-24892000D02*
X62225000Y-26167000D01*
X24892000Y-43688000D02*
X23876000Y-44704000D01*
X69088000Y-16764000D02*
X69088000Y-30480000D01*
X68072000Y-33528000D02*
X67818000Y-33274000D01*
X65024000Y-46228000D02*
X66040000Y-45212000D01*
X69088000Y-46228000D02*
X67056000Y-48260000D01*
X28067000Y-44577000D02*
X29210000Y-45720000D01*
X27940000Y-43688000D02*
X28956000Y-43688000D01*
X60203000Y-26167000D02*
X60960000Y-26924000D01*
X67564000Y-15240000D02*
X69088000Y-16764000D01*
X63500000Y-46736000D02*
X64008000Y-47244000D01*
X29972000Y-45720000D02*
X30480000Y-45212000D01*
X67056000Y-47244000D02*
X68072000Y-46228000D01*
%TO.N,Net-(R4-Pad2)*%
X69596000Y-53340000D02*
X69596000Y-54864000D01*
X48260000Y-44196000D02*
X47244000Y-43180000D01*
X69088000Y-57912000D02*
X69596000Y-57912000D01*
X68072000Y-56388000D02*
X67564000Y-56896000D01*
X16764000Y-54864000D02*
X16764000Y-53594000D01*
X67564000Y-57912000D02*
X67818000Y-58166000D01*
X44704000Y-42672000D02*
X44196000Y-43180000D01*
X58928000Y-52832000D02*
X58420000Y-52832000D01*
X67564000Y-56896000D02*
X67564000Y-57912000D01*
X46736000Y-44196000D02*
X47244000Y-44704000D01*
X68580000Y-57404000D02*
X68580000Y-54356000D01*
X18034000Y-52324000D02*
X18034000Y-53594000D01*
X58928000Y-51308000D02*
X59436000Y-51308000D01*
X17272000Y-52324000D02*
X17272000Y-53848000D01*
X16764000Y-56388000D02*
X16764000Y-57404000D01*
X69596000Y-57912000D02*
X69596000Y-58928000D01*
X45212000Y-42672000D02*
X44704000Y-42672000D01*
X67564000Y-51308000D02*
X69596000Y-53340000D01*
X69596000Y-54864000D02*
X69596000Y-54356000D01*
X19050000Y-53340000D02*
X18034000Y-52324000D01*
X59436000Y-51308000D02*
X59944000Y-50800000D01*
X66040000Y-59944000D02*
X67818000Y-58166000D01*
X69596000Y-54864000D02*
X69596000Y-57912000D01*
X49276000Y-44196000D02*
X48260000Y-43180000D01*
X67056000Y-51816000D02*
X65024000Y-51816000D01*
X16764000Y-54864000D02*
X16764000Y-55372000D01*
X69596000Y-58928000D02*
X67056000Y-61468000D01*
X48260000Y-46736000D02*
X49276000Y-46736000D01*
X45720000Y-44196000D02*
X46990000Y-45466000D01*
X67056000Y-57404000D02*
X67056000Y-54864000D01*
X15748000Y-56388000D02*
X16764000Y-55372000D01*
X47244000Y-43180000D02*
X46736000Y-43180000D01*
X46990000Y-45466000D02*
X48260000Y-46736000D01*
X67056000Y-57912000D02*
X67056000Y-57404000D01*
X15240000Y-56896000D02*
X16764000Y-55372000D01*
X67056000Y-54864000D02*
X66040000Y-53848000D01*
X17780000Y-53340000D02*
X17272000Y-53848000D01*
X46736000Y-43180000D02*
X45720000Y-44196000D01*
X48006000Y-45466000D02*
X48260000Y-45720000D01*
X58420000Y-52832000D02*
X57912000Y-52324000D01*
X65532000Y-51308000D02*
X58928000Y-51308000D01*
X68580000Y-50800000D02*
X70612000Y-52832000D01*
X48260000Y-60452000D02*
X48768000Y-59944000D01*
X48260000Y-60960000D02*
X65024000Y-60960000D01*
X65024000Y-52832000D02*
X60960000Y-52832000D01*
X68580000Y-54356000D02*
X66548000Y-52324000D01*
X49276000Y-46736000D02*
X49276000Y-44196000D01*
X47752000Y-42672000D02*
X46736000Y-42672000D01*
X48260000Y-60960000D02*
X48260000Y-60452000D01*
X22352000Y-53340000D02*
X20828000Y-53340000D01*
X69596000Y-54356000D02*
X67056000Y-51816000D01*
X48260000Y-45720000D02*
X48260000Y-44196000D01*
X46736000Y-42672000D02*
X45212000Y-42672000D01*
X65024000Y-51816000D02*
X68072000Y-54864000D01*
X65532000Y-51308000D02*
X67564000Y-51308000D01*
X22860000Y-52832000D02*
X22352000Y-53340000D01*
X17272000Y-53848000D02*
X17526000Y-54102000D01*
X65024000Y-59944000D02*
X66040000Y-59944000D01*
X59944000Y-51816000D02*
X65024000Y-51816000D01*
X18034000Y-52324000D02*
X17272000Y-52324000D01*
X58420000Y-51816000D02*
X58928000Y-51308000D01*
X59436000Y-51308000D02*
X59944000Y-51816000D01*
X66548000Y-52324000D02*
X65532000Y-51308000D01*
X16764000Y-57404000D02*
X15748000Y-57404000D01*
X66548000Y-61468000D02*
X66040000Y-60960000D01*
X44196000Y-43180000D02*
X46482000Y-45466000D01*
X18034000Y-53594000D02*
X17526000Y-54102000D01*
X57912000Y-52324000D02*
X58420000Y-51816000D01*
X20828000Y-53340000D02*
X17780000Y-53340000D01*
X46990000Y-45466000D02*
X48006000Y-45466000D01*
X60960000Y-52832000D02*
X58928000Y-52832000D01*
X46482000Y-45466000D02*
X46990000Y-45466000D01*
X16764000Y-53594000D02*
X18034000Y-52324000D01*
X22352000Y-52324000D02*
X18034000Y-52324000D01*
X17526000Y-54102000D02*
X16764000Y-54864000D01*
X16764000Y-55372000D02*
X16764000Y-56388000D01*
X49276000Y-61976000D02*
X48260000Y-60960000D01*
X67564000Y-61976000D02*
X49276000Y-61976000D01*
X48768000Y-59944000D02*
X65024000Y-59944000D01*
X23622000Y-52832000D02*
X22860000Y-52832000D01*
X65024000Y-60960000D02*
X66040000Y-59944000D01*
X22860000Y-52832000D02*
X22352000Y-52324000D01*
X20828000Y-53340000D02*
X19050000Y-53340000D01*
X66040000Y-53848000D02*
X65024000Y-52832000D01*
X70612000Y-58928000D02*
X67564000Y-61976000D01*
X67818000Y-58166000D02*
X68580000Y-57404000D01*
X59944000Y-50800000D02*
X68580000Y-50800000D01*
X15748000Y-57404000D02*
X15240000Y-56896000D01*
X65024000Y-59944000D02*
X67056000Y-57912000D01*
X67056000Y-61468000D02*
X66548000Y-61468000D01*
X48260000Y-43180000D02*
X47752000Y-42672000D01*
X66040000Y-60960000D02*
X69088000Y-57912000D01*
X16764000Y-56388000D02*
X15748000Y-57404000D01*
X15748000Y-57404000D02*
X15748000Y-56388000D01*
X68072000Y-54864000D02*
X68072000Y-56388000D01*
X70612000Y-52832000D02*
X70612000Y-58928000D01*
X45720000Y-44196000D02*
X46736000Y-44196000D01*
%TO.N,Net-(R6-Pad2)*%
X49022000Y-51308000D02*
X49022000Y-51054000D01*
X53340000Y-51308000D02*
X49022000Y-51308000D01*
X63500000Y-33528000D02*
X63500000Y-29464000D01*
X50292000Y-52324000D02*
X52324000Y-52324000D01*
X57404000Y-39624000D02*
X56388000Y-40640000D01*
X47752000Y-21336000D02*
X48768000Y-21336000D01*
X45720000Y-19812000D02*
X48260000Y-17272000D01*
X50292000Y-18796000D02*
X49784000Y-19304000D01*
X63246000Y-41402000D02*
X63500000Y-41148000D01*
X46228000Y-21844000D02*
X45974000Y-21590000D01*
X58928000Y-40132000D02*
X57404000Y-41656000D01*
X61468000Y-39624000D02*
X62484000Y-38608000D01*
X57404000Y-39624000D02*
X58420000Y-38608000D01*
X63500000Y-29464000D02*
X66040000Y-26924000D01*
X49276000Y-22860000D02*
X48768000Y-23368000D01*
X49276000Y-18288000D02*
X49784000Y-18288000D01*
X65532000Y-31496000D02*
X64262000Y-32766000D01*
X64262000Y-32766000D02*
X64262000Y-29718000D01*
X49784000Y-20320000D02*
X48768000Y-20320000D01*
X60452000Y-42672000D02*
X60452000Y-42164000D01*
X56388000Y-40640000D02*
X56388000Y-47752000D01*
X48768000Y-23368000D02*
X47244000Y-23368000D01*
X56388000Y-47752000D02*
X56642000Y-48006000D01*
X57404000Y-41656000D02*
X57404000Y-42672000D01*
X57404000Y-39624000D02*
X61468000Y-39624000D01*
X50038000Y-50038000D02*
X53594000Y-50038000D01*
X58420000Y-38608000D02*
X61468000Y-38608000D01*
X52832000Y-52832000D02*
X59944000Y-45720000D01*
X64262000Y-29718000D02*
X65024000Y-28956000D01*
X48768000Y-23368000D02*
X47752000Y-22352000D01*
X47752000Y-20828000D02*
X47752000Y-21336000D01*
X50800000Y-18288000D02*
X50800000Y-19304000D01*
X51816000Y-17780000D02*
X50551000Y-16515000D01*
X61468000Y-38608000D02*
X63500000Y-36576000D01*
X62484000Y-40640000D02*
X59436000Y-40640000D01*
X50800000Y-19304000D02*
X49784000Y-20320000D01*
X63500000Y-36576000D02*
X63500000Y-33528000D01*
X58420000Y-41656000D02*
X58420000Y-44196000D01*
X50551000Y-16515000D02*
X49530000Y-16515000D01*
X65024000Y-28956000D02*
X65532000Y-29464000D01*
X48260000Y-18288000D02*
X49276000Y-18288000D01*
X49276000Y-51308000D02*
X50292000Y-52324000D01*
X49022000Y-51054000D02*
X50038000Y-50038000D01*
X49784000Y-19304000D02*
X49276000Y-19304000D01*
X49276000Y-52832000D02*
X52832000Y-52832000D01*
X49022000Y-51308000D02*
X49022000Y-52578000D01*
X65532000Y-29464000D02*
X65532000Y-31496000D01*
X49022000Y-51308000D02*
X49276000Y-51308000D01*
X66040000Y-26924000D02*
X66040000Y-30988000D01*
X60452000Y-42164000D02*
X59944000Y-41656000D01*
X45974000Y-21590000D02*
X44704000Y-20320000D01*
X49276000Y-19304000D02*
X47752000Y-20828000D01*
X59436000Y-40640000D02*
X58928000Y-40132000D01*
X49022000Y-52578000D02*
X49276000Y-52832000D01*
X59944000Y-45720000D02*
X59944000Y-44704000D01*
X48768000Y-22352000D02*
X49276000Y-21844000D01*
X66040000Y-17780000D02*
X66548000Y-18288000D01*
X66040000Y-20320000D02*
X66040000Y-17780000D01*
X44704000Y-20320000D02*
X44704000Y-19304000D01*
X66548000Y-30480000D02*
X65532000Y-31496000D01*
X59436000Y-43180000D02*
X59436000Y-42672000D01*
X47244000Y-23368000D02*
X46228000Y-22352000D01*
X49784000Y-18288000D02*
X50292000Y-18796000D01*
X48768000Y-21336000D02*
X49276000Y-21844000D01*
X47244000Y-21336000D02*
X46228000Y-20320000D01*
X44704000Y-19304000D02*
X47493000Y-16515000D01*
X56642000Y-48006000D02*
X59944000Y-44704000D01*
X49276000Y-21844000D02*
X51816000Y-19304000D01*
X46228000Y-22352000D02*
X46228000Y-21844000D01*
X66548000Y-18288000D02*
X66548000Y-30480000D01*
X53594000Y-50038000D02*
X54610000Y-50038000D01*
X60960000Y-43688000D02*
X63246000Y-41402000D01*
X57404000Y-42672000D02*
X57404000Y-45720000D01*
X48768000Y-23368000D02*
X48768000Y-22352000D01*
X49276000Y-21844000D02*
X49276000Y-22860000D01*
X57404000Y-45720000D02*
X60452000Y-42672000D01*
X51816000Y-19304000D02*
X51816000Y-17780000D01*
X63500000Y-41148000D02*
X63500000Y-36576000D01*
X59944000Y-41656000D02*
X58420000Y-41656000D01*
X48260000Y-17272000D02*
X49784000Y-17272000D01*
X59944000Y-44704000D02*
X60960000Y-43688000D01*
X47244000Y-23368000D02*
X47244000Y-21336000D01*
X66040000Y-20320000D02*
X66040000Y-26924000D01*
X53594000Y-50038000D02*
X61468000Y-42164000D01*
X46228000Y-20320000D02*
X45720000Y-19812000D01*
X54610000Y-50038000D02*
X56642000Y-48006000D01*
X53340000Y-51308000D02*
X54610000Y-50038000D01*
X62484000Y-38608000D02*
X62484000Y-40640000D01*
X59182000Y-41402000D02*
X63246000Y-41402000D01*
X66040000Y-30988000D02*
X65532000Y-31496000D01*
X48768000Y-20320000D02*
X47752000Y-21336000D01*
X47752000Y-22352000D02*
X47752000Y-21336000D01*
X64262000Y-32766000D02*
X63500000Y-33528000D01*
X58420000Y-44196000D02*
X59436000Y-43180000D01*
X46228000Y-20320000D02*
X48260000Y-18288000D01*
X45974000Y-21590000D02*
X49276000Y-18288000D01*
X57404000Y-39624000D02*
X59182000Y-41402000D01*
X47493000Y-16515000D02*
X49530000Y-16515000D01*
X49784000Y-17272000D02*
X50800000Y-18288000D01*
%TO.N,Net-(R8-Pad2)*%
X22352000Y-49784000D02*
X21336000Y-48768000D01*
X12700000Y-32512000D02*
X12700000Y-12192000D01*
X5080000Y-16764000D02*
X5080000Y-25400000D01*
X12700000Y-55372000D02*
X7112000Y-55372000D01*
X22860000Y-9652000D02*
X20828000Y-7620000D01*
X7620000Y-26924000D02*
X7620000Y-17780000D01*
X23368000Y-49276000D02*
X21844000Y-49276000D01*
X19812000Y-5080000D02*
X19304000Y-4572000D01*
X7112000Y-17272000D02*
X7112000Y-25400000D01*
X13208000Y-4572000D02*
X4064000Y-13716000D01*
X24135000Y-13462000D02*
X24135000Y-10927000D01*
X18796000Y-6604000D02*
X18796000Y-5588000D01*
X13208000Y-41148000D02*
X12700000Y-41656000D01*
X16764000Y-9652000D02*
X13208000Y-13208000D01*
X4064000Y-26924000D02*
X6096000Y-28956000D01*
X5080000Y-13716000D02*
X5080000Y-14732000D01*
X6604000Y-27940000D02*
X9652000Y-27940000D01*
X23368000Y-49276000D02*
X21844000Y-47752000D01*
X9144000Y-27432000D02*
X8636000Y-27432000D01*
X10668000Y-11176000D02*
X15240000Y-6604000D01*
X21844000Y-49276000D02*
X20320000Y-47752000D01*
X11430000Y-11938000D02*
X15748000Y-7620000D01*
X20828000Y-4572000D02*
X20828000Y-7620000D01*
X24135000Y-10927000D02*
X22860000Y-9652000D01*
X21844000Y-8636000D02*
X22352000Y-9144000D01*
X13208000Y-6604000D02*
X14732000Y-6604000D01*
X12954000Y-55118000D02*
X14224000Y-53848000D01*
X18796000Y-5588000D02*
X13208000Y-5588000D01*
X14224000Y-53848000D02*
X14224000Y-51308000D01*
X10414000Y-30226000D02*
X10160000Y-29972000D01*
X19812000Y-3556000D02*
X20828000Y-4572000D01*
X5080000Y-25400000D02*
X5080000Y-26416000D01*
X7112000Y-26924000D02*
X7620000Y-26924000D01*
X26670000Y-49784000D02*
X23876000Y-49784000D01*
X12700000Y-41656000D02*
X12700000Y-33528000D01*
X3048000Y-27432000D02*
X3048000Y-17780000D01*
X26670000Y-49784000D02*
X22352000Y-49784000D01*
X9906000Y-10922000D02*
X12192000Y-8636000D01*
X17780000Y-47752000D02*
X20320000Y-47752000D01*
X11684000Y-44196000D02*
X13208000Y-42672000D01*
X9144000Y-12700000D02*
X5080000Y-16764000D01*
X11176000Y-44196000D02*
X11684000Y-44196000D01*
X6096000Y-54356000D02*
X7112000Y-55372000D01*
X7112000Y-55372000D02*
X8128000Y-56388000D01*
X9144000Y-46736000D02*
X9144000Y-46228000D01*
X6096000Y-28956000D02*
X10668000Y-28956000D01*
X21336000Y-48768000D02*
X16764000Y-48768000D01*
X5080000Y-26416000D02*
X6604000Y-27940000D01*
X12700000Y-41656000D02*
X6096000Y-48260000D01*
X10160000Y-29972000D02*
X5588000Y-29972000D01*
X13208000Y-5588000D02*
X5080000Y-13716000D01*
X5080000Y-14732000D02*
X5080000Y-25400000D01*
X8128000Y-56388000D02*
X11684000Y-56388000D01*
X12700000Y-33528000D02*
X12700000Y-32512000D01*
X15748000Y-7620000D02*
X19812000Y-7620000D01*
X10668000Y-28956000D02*
X10668000Y-11176000D01*
X9144000Y-27432000D02*
X9144000Y-12700000D01*
X19304000Y-4572000D02*
X13208000Y-4572000D01*
X16256000Y-8636000D02*
X18288000Y-8636000D01*
X5588000Y-29972000D02*
X3048000Y-27432000D01*
X7112000Y-48768000D02*
X9144000Y-46736000D01*
X19812000Y-7620000D02*
X19812000Y-5080000D01*
X9652000Y-27940000D02*
X9906000Y-27686000D01*
X14224000Y-51308000D02*
X16764000Y-48768000D01*
X3048000Y-17780000D02*
X9906000Y-10922000D01*
X18796000Y-8636000D02*
X20828000Y-8636000D01*
X20828000Y-8636000D02*
X21844000Y-8636000D01*
X12700000Y-8636000D02*
X12192000Y-8636000D01*
X7620000Y-17780000D02*
X7112000Y-17272000D01*
X12700000Y-3556000D02*
X19812000Y-3556000D01*
X8636000Y-27432000D02*
X8128000Y-26924000D01*
X7112000Y-55372000D02*
X7112000Y-48768000D01*
X8128000Y-26924000D02*
X8128000Y-15240000D01*
X5080000Y-14732000D02*
X13208000Y-6604000D01*
X12700000Y-12192000D02*
X14224000Y-10668000D01*
X11430000Y-31242000D02*
X10414000Y-30226000D01*
X22352000Y-49784000D02*
X20320000Y-47752000D01*
X6096000Y-25908000D02*
X7112000Y-26924000D01*
X12192000Y-8636000D02*
X18288000Y-8636000D01*
X12954000Y-55118000D02*
X12700000Y-55372000D01*
X14732000Y-6604000D02*
X12700000Y-8636000D01*
X9652000Y-27940000D02*
X9144000Y-27432000D01*
X9144000Y-46228000D02*
X11176000Y-44196000D01*
X12700000Y-32512000D02*
X11430000Y-31242000D01*
X11684000Y-56388000D02*
X12954000Y-55118000D01*
X22860000Y-9652000D02*
X16764000Y-9652000D01*
X9906000Y-27686000D02*
X9906000Y-10922000D01*
X3048000Y-17780000D02*
X3048000Y-13208000D01*
X16764000Y-48768000D02*
X17780000Y-47752000D01*
X15240000Y-6604000D02*
X18796000Y-6604000D01*
X14224000Y-10668000D02*
X16256000Y-8636000D01*
X8128000Y-15240000D02*
X8636000Y-14732000D01*
X6096000Y-48260000D02*
X6096000Y-54356000D01*
X11430000Y-31242000D02*
X11430000Y-11938000D01*
X18288000Y-8636000D02*
X18796000Y-8636000D01*
X6096000Y-17272000D02*
X6096000Y-25908000D01*
X4064000Y-13716000D02*
X4064000Y-26924000D01*
X13208000Y-42672000D02*
X13208000Y-41148000D01*
X3048000Y-13208000D02*
X12700000Y-3556000D01*
X21844000Y-47752000D02*
X20320000Y-47752000D01*
X10668000Y-28956000D02*
X10668000Y-29972000D01*
X10668000Y-29972000D02*
X10414000Y-30226000D01*
X20828000Y-7620000D02*
X20828000Y-8636000D01*
X8636000Y-14732000D02*
X6096000Y-17272000D01*
X23876000Y-49784000D02*
X23368000Y-49276000D01*
X13208000Y-13208000D02*
X13208000Y-41148000D01*
%TO.N,Net-(A1-Pad13)*%
X91948000Y-26416000D02*
X93218000Y-27686000D01*
X83312000Y-25908000D02*
X83820000Y-26416000D01*
X78486000Y-20066000D02*
X77724000Y-19304000D01*
X69088000Y-5080000D02*
X77216000Y-13208000D01*
X77216000Y-19812000D02*
X83312000Y-25908000D01*
X61468000Y-8128000D02*
X61468000Y-5588000D01*
X84328000Y-25908000D02*
X78486000Y-20066000D01*
X61976000Y-5080000D02*
X69088000Y-5080000D01*
X93472000Y-26416000D02*
X92964000Y-25908000D01*
X83820000Y-26416000D02*
X91948000Y-26416000D01*
X77724000Y-19304000D02*
X77216000Y-18796000D01*
X93472000Y-27432000D02*
X93472000Y-26416000D01*
X77216000Y-17780000D02*
X77216000Y-19812000D01*
X77216000Y-18796000D02*
X77216000Y-17780000D01*
X83820000Y-26416000D02*
X84328000Y-25908000D01*
X92964000Y-25908000D02*
X84328000Y-25908000D01*
X61468000Y-5588000D02*
X61976000Y-5080000D01*
X78486000Y-14478000D02*
X77724000Y-13716000D01*
X78486000Y-20066000D02*
X78486000Y-14478000D01*
X77216000Y-13208000D02*
X77216000Y-17780000D01*
X77724000Y-13716000D02*
X77216000Y-13208000D01*
X77724000Y-19304000D02*
X77724000Y-13716000D01*
X84328000Y-25908000D02*
X83312000Y-25908000D01*
X93472000Y-26416000D02*
X91948000Y-26416000D01*
X93218000Y-27686000D02*
X93472000Y-27432000D01*
%TO.N,Net-(A1-Pad14)*%
X90678000Y-30226000D02*
X82550000Y-30226000D01*
X80772000Y-28956000D02*
X80518000Y-29210000D01*
X74676000Y-22860000D02*
X74676000Y-21844000D01*
X68580000Y-8128000D02*
X64008000Y-8128000D01*
X89408000Y-28956000D02*
X82804000Y-28956000D01*
X80010000Y-27686000D02*
X75184000Y-22860000D01*
X74676000Y-14224000D02*
X68580000Y-8128000D01*
X80518000Y-29210000D02*
X74676000Y-23368000D01*
X74676000Y-21844000D02*
X74676000Y-14224000D01*
X89916000Y-29464000D02*
X89408000Y-28956000D01*
X74676000Y-23368000D02*
X74676000Y-22860000D01*
X80772000Y-28448000D02*
X80010000Y-27686000D01*
X82550000Y-30226000D02*
X81534000Y-30226000D01*
X80772000Y-28956000D02*
X80772000Y-28448000D01*
X90678000Y-30226000D02*
X89916000Y-29464000D01*
X89916000Y-29464000D02*
X85852000Y-29464000D01*
X75184000Y-22860000D02*
X74676000Y-22860000D01*
X80010000Y-27686000D02*
X82550000Y-30226000D01*
X81534000Y-30226000D02*
X80518000Y-29210000D01*
X82804000Y-28956000D02*
X80772000Y-28956000D01*
X93218000Y-30226000D02*
X90678000Y-30226000D01*
X74676000Y-21844000D02*
X81788000Y-28956000D01*
X81788000Y-28956000D02*
X82804000Y-28956000D01*
%TD*%
M02*
