M48
; DRILL file {KiCad (6.0.11)} date Thu May 30 13:56:47 2024
; FORMAT={-:-/ absolute / metric / decimal}
; #@! TF.CreationDate,2024-05-30T13:56:47-03:00
; #@! TF.GenerationSoftware,Kicad,Pcbnew,(6.0.11)
; #@! TF.FileFunction,Plated,1,2,PTH
FMAT,2
METRIC
; #@! TA.AperFunction,Plated,PTH,ComponentDrill
T1C0.508
; #@! TA.AperFunction,Plated,PTH,ComponentDrill
T2C0.700
; #@! TA.AperFunction,Plated,PTH,ViaDrill
T3C0.762
; #@! TA.AperFunction,Plated,PTH,ComponentDrill
T4C0.762
; #@! TA.AperFunction,Plated,PTH,ComponentDrill
T5C0.800
; #@! TA.AperFunction,Plated,PTH,ComponentDrill
T6C1.000
%
G90
G05
T1
X23.114Y-28.448
X23.114Y-35.56
X27.432Y-28.448
X27.432Y-35.56
X28.829Y-24.13
X28.829Y-39.878
X33.528Y-21.59
X36.068Y-21.59
X38.608Y-21.59
X43.307Y-24.13
X43.307Y-39.878
X46.482Y-29.464
X46.482Y-32.004
X46.482Y-34.544
T2
X9.398Y-38.608
X10.414Y-52.324
X12.7Y-47.752
X17.018Y-38.608
X17.272Y-43.18
X18.034Y-52.324
X20.32Y-47.752
X23.622Y-52.832
X24.892Y-43.18
X26.67Y-49.784
X29.21Y-45.72
X31.242Y-52.832
X34.29Y-49.784
X36.83Y-45.72
X41.402Y-51.308
X49.022Y-51.308
X57.404Y-32.004
X57.404Y-39.624
T3
X15.748Y-57.404
X17.272Y-24.892
X24.892Y-46.228
X30.48Y-15.748
X34.036Y-12.192
X45.72Y-44.196
X47.752Y-21.336
X48.26Y-60.96
X48.768Y-4.572
X59.436Y-51.308
X63.5Y-24.892
X63.5Y-46.736
X66.04Y-17.78
X76.708Y-30.48
X84.836Y-22.352
T4
X93.218Y-27.686
X93.218Y-30.226
X93.218Y-32.766
X93.218Y-35.306
T5
X21.595Y-13.462
X21.595Y-21.082
X24.135Y-13.462
X24.135Y-21.082
X41.91Y-13.975
X41.91Y-16.515
X49.276Y-39.116
X49.276Y-46.736
X49.53Y-13.975
X49.53Y-16.515
X51.816Y-39.116
X51.816Y-46.736
X52.07Y-23.627
X52.07Y-26.167
X59.69Y-23.627
X59.69Y-26.167
T6
X19.308Y-56.388
X21.848Y-56.388
X24.388Y-56.388
X26.928Y-56.388
X28.448Y-8.128
X29.468Y-56.388
X30.988Y-8.128
X32.008Y-56.388
X33.528Y-8.128
X33.528Y-8.128
X34.548Y-56.388
X36.068Y-8.128
X37.088Y-56.388
X38.608Y-8.128
X39.628Y-56.388
X41.148Y-8.128
X42.168Y-56.388
X43.688Y-8.128
X46.228Y-8.128
X46.228Y-56.388
X48.768Y-56.388
X51.308Y-8.128
X51.308Y-56.388
X53.848Y-8.128
X53.848Y-56.388
X56.388Y-8.128
X56.388Y-56.388
X58.928Y-8.128
X58.928Y-56.388
X61.468Y-8.128
X61.468Y-56.388
X64.008Y-8.128
X64.008Y-56.388
T0
M30
